<?xml version="1.0" standalone="no"?>
<!DOCTYPE svg PUBLIC "-//W3C//DTD SVG 20010904//EN"
 "http://www.w3.org/TR/2001/REC-SVG-20010904/DTD/svg10.dtd">
<svg version="1.0" xmlns="http://www.w3.org/2000/svg"
 width="225.000000pt" height="225.000000pt" viewBox="0 0 225.000000 225.000000"
 preserveAspectRatio="xMidYMid meet">

<g transform="translate(0.000000,225.000000) scale(0.100000,-0.100000)"
fill="#000000" stroke="none">
<path d="M1510 1779 l0 -141 -58 54 c-163 150 -333 218 -552 218 -357 0 -652
-221 -762 -570 -20 -64 -23 -96 -23 -220 0 -124 3 -156 23 -220 84 -267 275
-458 542 -542 64 -20 96 -23 220 -23 124 0 156 3 220 23 137 44 293 138 360
220 l30 37 0 -148 0 -147 120 0 120 0 0 800 0 800 -120 0 -120 0 0 -141z
m-497 -224 c79 -21 131 -49 190 -103 63 -59 100 -117 128 -200 18 -54 21 -80
17 -159 -5 -82 -10 -102 -41 -166 -79 -158 -206 -243 -379 -255 -140 -9 -259
38 -354 140 -62 68 -88 113 -109 195 -39 149 0 301 106 418 112 122 281 172
442 130z"/>
<path d="M1920 499 c0 -5 5 -7 10 -4 6 3 10 8 10 11 0 2 -4 4 -10 4 -5 0 -10
-5 -10 -11z"/>
<path d="M1945 489 c-4 -6 -4 -13 -1 -16 3 -4 7 0 8 8 0 8 4 -6 7 -31 5 -32 2
-50 -8 -62 -22 -28 -31 -21 -31 21 0 66 -23 60 -36 -9 -3 -14 -10 -29 -15 -35
-7 -7 -10 -7 -9 0 2 6 2 16 1 24 -2 22 -15 3 -19 -27 -5 -42 -12 -39 -12 6 0
23 -4 42 -10 42 -5 0 -10 -18 -10 -40 0 -50 4 -52 185 -48 l140 3 3 83 c2 67
0 82 -12 82 -9 0 -16 -12 -19 -32 l-4 -33 -1 33 c-2 30 -4 32 -41 32 -22 0
-43 -4 -46 -10 -4 -6 -17 -4 -35 5 -20 10 -31 12 -35 4z m62 -81 c-3 -7 -5 -2
-5 12 0 14 2 19 5 13 2 -7 2 -19 0 -25z"/>
<path d="M1793 435 c0 -22 2 -30 4 -17 2 12 2 30 0 40 -3 9 -5 -1 -4 -23z"/>
</g>
</svg>
