<?xml version="1.0" standalone="no"?>
<!DOCTYPE svg PUBLIC "-//W3C//DTD SVG 20010904//EN"
 "http://www.w3.org/TR/2001/REC-SVG-20010904/DTD/svg10.dtd">
<svg version="1.0" xmlns="http://www.w3.org/2000/svg"
 width="138.000000pt" height="92.000000pt" viewBox="0 0 138.000000 92.000000"
 preserveAspectRatio="xMidYMid meet">

<g transform="translate(0.000000,92.000000) scale(0.100000,-0.100000)"
fill="#000000" stroke="none">
<path d="M465 845 l-50 -14 48 5 c26 2 66 6 90 9 23 3 87 1 141 -5 227 -26
409 -121 481 -251 25 -46 30 -65 30 -124 -1 -111 -51 -190 -169 -264 -69 -43
-43 -39 30 5 329 197 234 524 -182 630 -81 20 -119 24 -233 23 -78 -1 -157 -7
-186 -14z"/>
<path d="M475 814 c-171 -35 -258 -71 -334 -140 -65 -58 -91 -113 -91 -190 0
-114 85 -224 227 -294 79 -39 93 -36 16 4 -65 35 -132 99 -159 153 -26 52 -26
154 1 208 46 94 167 175 322 216 107 28 288 29 393 1 41 -11 76 -19 78 -17 7
6 -126 45 -188 55 -63 10 -224 12 -265 4z"/>
<path d="M520 563 c-63 -86 -125 -172 -138 -190 l-23 -33 53 0 c53 1 53 1 91
55 37 54 39 55 87 55 l50 0 0 -55 0 -55 85 0 85 0 -34 44 c-44 58 -70 136 -63
190 8 61 61 106 123 106 25 0 54 -5 65 -11 19 -9 20 -8 17 18 l-3 28 -140 3
-140 3 -115 -158z m120 -8 c0 -20 -5 -25 -25 -25 -26 0 -26 0 -8 25 23 31 33
31 33 0z"/>
<path d="M818 471 c18 -16 22 -29 22 -75 0 -60 1 -61 31 -46 42 23 67 121 33
134 -9 3 -37 6 -62 6 l-47 -1 23 -18z"/>
<path d="M580 285 c-10 -13 -9 -15 8 -15 15 0 20 5 16 15 -4 8 -7 15 -9 15 -1
0 -8 -7 -15 -15z"/>
<path d="M390 255 c0 -19 5 -35 10 -35 6 0 10 16 10 35 0 19 -4 35 -10 35 -5
0 -10 -16 -10 -35z"/>
<path d="M723 268 c1 -7 7 -16 12 -20 6 -4 2 -8 -7 -8 -10 0 -18 5 -18 10 0
16 -30 12 -36 -5 -3 -8 2 -22 12 -32 12 -13 19 -14 22 -5 2 6 15 12 28 12 17
0 24 6 24 20 0 11 -6 20 -12 20 -9 0 -8 4 2 10 12 8 11 10 -7 10 -13 0 -22 -5
-20 -12z"/>
<path d="M368 235 c-6 -30 -3 -43 8 -33 3 4 4 19 2 35 l-3 28 -7 -30z"/>
<path d="M423 240 c-1 -12 4 -20 13 -20 9 0 14 7 12 17 -4 24 -23 27 -25 3z"/>
<path d="M460 229 c0 -27 2 -30 15 -19 9 7 18 10 22 6 3 -3 1 -6 -6 -6 -7 0
-9 -4 -6 -10 11 -18 25 -10 25 15 0 16 -6 25 -15 25 -8 0 -15 5 -15 10 0 6 -4
10 -10 10 -5 0 -10 -14 -10 -31z"/>
<path d="M522 233 c2 -20 9 -29 26 -31 12 -2 22 1 22 7 0 6 20 11 45 11 25 0
45 5 45 10 0 6 -9 10 -19 10 -11 0 -22 6 -24 13 -4 8 -6 7 -6 -3 -1 -13 -2
-13 -12 0 -9 12 -12 13 -16 1 -5 -11 -7 -11 -14 0 -6 10 -9 6 -9 -13 0 -16 -4
-28 -10 -28 -5 0 -10 11 -10 25 0 14 -5 25 -11 25 -6 0 -9 -12 -7 -27z"/>
<path d="M778 231 c-2 -17 -1 -31 4 -31 4 0 8 5 8 10 0 6 28 10 65 10 37 0 65
4 65 10 0 6 -6 10 -12 10 -9 0 -8 4 2 10 13 9 13 10 -1 10 -8 0 -20 -5 -27
-12 -9 -9 -12 -9 -12 0 0 7 -14 12 -35 12 -21 0 -35 -5 -35 -12 0 -10 -3 -9
-9 1 -6 9 -10 4 -13 -18z m69 13 c-3 -3 -12 -4 -19 -1 -8 3 -5 6 6 6 11 1 17
-2 13 -5z"/>
<path d="M638 203 c7 -3 16 -2 19 1 4 3 -2 6 -13 5 -11 0 -14 -3 -6 -6z"/>
</g>
</svg>
