<?xml version="1.0" standalone="no"?>
<!DOCTYPE svg PUBLIC "-//W3C//DTD SVG 20010904//EN"
 "http://www.w3.org/TR/2001/REC-SVG-20010904/DTD/svg10.dtd">
<svg version="1.0" xmlns="http://www.w3.org/2000/svg"
 width="186.000000pt" height="183.000000pt" viewBox="0 0 186.000000 183.000000"
 preserveAspectRatio="xMidYMid meet">

<g transform="translate(0.000000,183.000000) scale(0.100000,-0.100000)"
fill="#000000" stroke="none">
<path d="M487 1773 c-4 -3 -6 -124 -5 -267 1 -144 4 -224 5 -178 l4 82 214 0
c210 0 215 0 215 -21 0 -13 -4 -18 -12 -13 -10 6 -10 4 0 -7 9 -9 12 -62 12
-191 0 -164 -1 -177 -17 -172 -16 5 -16 4 0 -6 18 -11 18 -13 1 -31 -15 -17
-31 -19 -133 -19 l-116 1 28 24 c15 14 24 25 19 25 -10 0 -52 -43 -52 -53 0
-4 54 -7 120 -7 111 0 120 -1 120 -19 0 -37 55 -42 72 -6 10 23 17 24 97 28
l86 3 -92 2 c-83 2 -93 4 -104 23 -9 17 -8 24 2 31 11 8 10 9 -3 4 -17 -5 -18
8 -18 173 0 196 0 196 63 211 28 7 29 8 7 9 -14 1 -36 -6 -48 -15 -21 -14 -22
-14 -22 5 0 21 5 21 215 21 l214 0 4 -87 c2 -49 3 34 3 182 l-1 270 -436 3
c-239 1 -439 -1 -442 -5z m871 -175 l-3 -173 -247 -2 -248 -2 4 22 c1 12 -3
27 -10 34 -20 21 -26 15 -10 -10 29 -43 13 -48 -175 -45 l-174 3 -3 160 c-1
87 0 165 2 172 4 10 94 13 436 13 l430 0 -2 -172z m-409 -650 c6 -16 5 -27 -5
-38 -12 -12 -16 -12 -30 2 -13 12 -14 20 -5 37 15 27 29 27 40 -1z"/>
<path d="M1090 1740 c-8 -5 -10 -10 -5 -10 6 0 17 5 25 10 8 5 11 10 5 10 -5
0 -17 -5 -25 -10z"/>
<path d="M1130 1739 c0 -5 5 -7 10 -4 6 3 10 8 10 11 0 2 -4 4 -10 4 -5 0 -10
-5 -10 -11z"/>
<path d="M688 1727 c-16 -6 -28 -15 -28 -19 0 -5 8 -4 19 1 10 6 21 7 25 4 3
-3 6 -2 6 4 0 5 7 10 15 10 8 0 15 -4 15 -9 0 -5 5 -6 11 -2 8 4 7 9 -2 15
-17 11 -26 10 -61 -4z"/>
<path d="M990 1730 c-11 -7 -5 -8 20 -4 43 8 51 14 19 14 -13 0 -31 -5 -39
-10z"/>
<path d="M575 1720 c-11 -5 -14 -9 -7 -9 6 -1 12 -13 13 -28 0 -16 5 -37 10
-48 7 -15 8 -10 3 19 -4 27 -1 41 8 47 20 12 -3 28 -27 19z"/>
<path d="M898 1723 c6 -2 18 -2 25 0 6 3 1 5 -13 5 -14 0 -19 -2 -12 -5z"/>
<path d="M1185 1705 c-5 -2 -27 -6 -49 -10 -21 -3 -36 -8 -34 -11 3 -2 26 0
51 5 26 4 49 6 52 3 12 -13 35 -9 35 5 0 12 -3 13 -13 4 -8 -6 -18 -7 -23 -2
-5 5 -13 7 -19 6z"/>
<path d="M1290 1690 c-6 -11 -8 -20 -6 -20 3 0 10 9 16 20 6 11 8 20 6 20 -3
0 -10 -9 -16 -20z"/>
<path d="M525 1692 c6 -4 9 -14 9 -22 -1 -8 -2 -21 -3 -28 0 -7 -6 -10 -13 -6
-7 5 -8 3 -3 -6 6 -10 11 -9 21 4 7 10 10 24 7 32 -3 8 0 14 6 14 21 0 11 16
-11 17 -13 1 -18 -1 -13 -5z"/>
<path d="M690 1681 c6 -12 15 -21 20 -21 18 0 11 19 -11 30 -19 11 -20 10 -9
-9z"/>
<path d="M893 1693 c9 -2 23 -2 30 0 6 3 -1 5 -18 5 -16 0 -22 -2 -12 -5z"/>
<path d="M958 1693 c32 -6 27 -19 -10 -27 -17 -3 -29 -9 -26 -12 4 -3 25 0 48
7 38 12 40 14 24 26 -10 7 -27 12 -38 12 -19 -2 -19 -2 2 -6z"/>
<path d="M1045 1690 c4 -6 11 -8 16 -5 14 9 11 15 -7 15 -8 0 -12 -5 -9 -10z"/>
<path d="M660 1680 c-1 -8 -3 -26 -6 -40 -3 -19 -2 -22 6 -10 9 13 11 13 19 0
5 -8 7 -18 4 -22 -2 -5 1 -16 8 -24 7 -8 14 -30 15 -47 l4 -32 -25 30 c-14 17
-23 35 -21 41 2 6 0 17 -5 25 -7 11 -9 11 -9 -3 0 -23 -8 -23 -34 -1 -12 10 1
-5 29 -32 49 -49 49 -49 25 -56 -29 -8 -26 -11 12 -13 29 -2 42 15 33 44 -4
11 3 23 19 34 28 18 26 49 -2 38 -15 -5 -16 -4 -2 14 8 10 22 24 30 31 8 7 11
12 5 13 -27 0 -49 -38 -46 -80 1 -22 0 -23 -9 -8 -6 10 -9 19 -8 21 2 1 -4 14
-13 28 -9 14 -19 34 -22 44 -3 13 -5 15 -7 5z m90 -84 c0 -3 -4 -8 -10 -11 -5
-3 -10 -1 -10 4 0 6 5 11 10 11 6 0 10 -2 10 -4z"/>
<path d="M854 1679 c-3 -6 -2 -15 3 -20 5 -5 9 -1 9 11 0 23 -2 24 -12 9z"/>
<path d="M1250 1675 c-8 -10 -21 -13 -34 -9 -20 6 -20 6 -2 -8 12 -10 16 -20
11 -28 -5 -9 -4 -11 3 -6 7 4 12 12 12 18 0 6 7 20 17 30 9 10 14 18 11 18 -3
0 -11 -7 -18 -15z"/>
<path d="M810 1677 c0 -16 21 -47 33 -47 8 0 9 3 1 8 -6 4 -16 16 -22 27 -6
11 -12 16 -12 12z"/>
<path d="M1138 1663 c7 -3 16 -2 19 1 4 3 -2 6 -13 5 -11 0 -14 -3 -6 -6z"/>
<path d="M1088 1653 c7 -3 16 -2 19 1 4 3 -2 6 -13 5 -11 0 -14 -3 -6 -6z"/>
<path d="M1330 1641 c-5 -11 -19 -22 -30 -24 -18 -4 -18 -5 1 -3 18 1 63 46
46 46 -4 0 -11 -9 -17 -19z"/>
<path d="M781 1635 c-1 -11 -4 -31 -6 -45 -5 -21 -4 -22 3 -5 5 11 20 23 33
26 23 7 23 7 2 8 -12 1 -24 9 -26 19 -4 14 -5 14 -6 -3z"/>
<path d="M1005 1640 c-25 -6 -21 -8 25 -9 39 0 51 2 40 9 -17 11 -22 11 -65 0z"/>
<path d="M1260 1630 c0 -5 7 -7 15 -4 8 4 15 8 15 10 0 2 -7 4 -15 4 -8 0 -15
-4 -15 -10z"/>
<path d="M880 1620 c36 -11 52 -11 45 0 -3 6 -21 10 -38 9 -31 -1 -31 -1 -7
-9z"/>
<path d="M1130 1591 c0 -6 4 -13 10 -16 6 -3 7 1 4 9 -7 18 -14 21 -14 7z"/>
<path d="M1193 1583 c9 -2 23 -2 30 0 6 3 -1 5 -18 5 -16 0 -22 -2 -12 -5z"/>
<path d="M969 1573 c-20 -5 -14 -46 9 -65 13 -12 14 -11 2 8 -17 27 -8 51 22
57 18 3 19 4 3 4 -11 1 -27 -1 -36 -4z"/>
<path d="M1258 1573 c7 -3 16 -2 19 1 4 3 -2 6 -13 5 -11 0 -14 -3 -6 -6z"/>
<path d="M1307 1560 c10 -11 19 -20 21 -20 1 0 -2 9 -8 20 -6 11 -15 20 -20
20 -6 0 -2 -9 7 -20z"/>
<path d="M1031 1559 c-1 -9 6 -22 14 -29 8 -7 13 -16 10 -19 -2 -4 2 -8 10 -8
8 0 12 4 9 9 -3 4 1 8 8 8 10 0 9 3 -2 9 -8 6 -18 7 -22 5 -5 -3 -12 5 -17 18
-7 15 -10 17 -10 7z"/>
<path d="M904 1544 c-18 -14 -18 -14 6 -3 31 14 36 19 24 19 -6 0 -19 -7 -30
-16z"/>
<path d="M736 1527 c-4 -18 -4 -18 15 -1 23 21 23 21 5 21 -8 0 -17 -9 -20
-20z"/>
<path d="M540 1530 c-9 -6 -10 -10 -3 -10 6 0 15 5 18 10 8 12 4 12 -15 0z"/>
<path d="M605 1530 c3 -5 8 -10 11 -10 2 0 4 5 4 10 0 6 -5 10 -11 10 -5 0 -7
-4 -4 -10z"/>
<path d="M845 1520 c-19 -8 -19 -9 2 -9 12 -1 25 4 28 9 7 12 -2 12 -30 0z"/>
<path d="M1198 1523 c12 -2 32 -2 45 0 12 2 2 4 -23 4 -25 0 -35 -2 -22 -4z"/>
<path d="M1323 1515 c-3 -9 -3 -18 -1 -21 3 -3 8 4 11 16 6 23 -1 27 -10 5z"/>
<path d="M631 1504 c0 -11 3 -14 6 -6 3 7 2 16 -1 19 -3 4 -6 -2 -5 -13z"/>
<path d="M1108 1513 c6 -2 18 -2 25 0 6 3 1 5 -13 5 -14 0 -19 -2 -12 -5z"/>
<path d="M530 1499 c0 -17 20 -49 31 -49 6 0 3 7 -5 16 -19 19 -20 31 -3 37 7
3 5 6 -5 6 -10 1 -18 -4 -18 -10z"/>
<path d="M571 1496 c-10 -12 -8 -13 8 -9 12 3 18 9 15 14 -7 12 -10 11 -23 -5z"/>
<path d="M1266 1493 c-6 -14 -5 -15 5 -6 7 7 10 15 7 18 -3 3 -9 -2 -12 -12z"/>
<path d="M1000 1471 c0 -6 4 -13 10 -16 6 -3 7 1 4 9 -7 18 -14 21 -14 7z"/>
<path d="M1235 1471 c-3 -5 -2 -12 3 -15 5 -3 9 1 9 9 0 17 -3 19 -12 6z"/>
<path d="M607 1457 c-3 -8 0 -14 7 -14 7 0 13 6 13 14 0 7 -4 13 -8 13 -4 0
-9 -6 -12 -13z"/>
<path d="M755 1459 c-4 -6 -14 -8 -24 -4 -13 5 -14 4 -3 -6 10 -11 15 -10 29
4 10 9 14 17 11 17 -4 0 -10 -5 -13 -11z"/>
<path d="M960 1460 c0 -6 -7 -10 -16 -8 -10 2 -18 -3 -20 -10 -1 -7 0 -8 2 -3
3 6 11 8 18 5 7 -3 19 2 26 11 8 10 9 15 1 15 -6 0 -11 -5 -11 -10z"/>
<path d="M665 1450 c-3 -5 -1 -10 4 -10 6 0 11 5 11 10 0 6 -2 10 -4 10 -3 0
-8 -4 -11 -10z"/>
<path d="M853 1383 c9 -2 23 -2 30 0 6 3 -1 5 -18 5 -16 0 -22 -2 -12 -5z"/>
<path d="M694 1369 c-3 -5 -19 -9 -35 -9 l-29 0 2 -217 3 -218 105 -1 105 0
-102 3 -103 4 0 209 c0 187 2 210 16 210 14 0 15 -2 3 -17 -11 -13 -8 -13 13
2 15 11 28 23 28 27 0 3 9 4 20 1 11 -3 20 -3 20 0 0 9 -40 15 -46 6z"/>
<path d="M785 1370 c-13 -5 -14 -9 -5 -9 8 0 24 4 35 9 13 5 14 9 5 9 -8 0
-24 -4 -35 -9z"/>
<path d="M1150 1197 c0 -185 0 -188 -22 -198 -21 -9 -21 -9 4 -4 22 4 31 0 44
-20 9 -14 20 -25 26 -25 5 0 8 82 6 200 -2 110 0 200 5 200 4 0 7 -94 7 -210
l0 -210 -120 0 c-66 0 -120 -3 -120 -7 0 -5 55 -6 122 -3 l123 5 3 218 2 217
-28 0 c-15 0 -33 5 -40 12 -9 9 -12 -30 -12 -175z m50 -49 l0 -191 -20 26
c-18 23 -20 40 -20 201 0 174 0 177 20 166 19 -10 20 -21 20 -202z"/>
<path d="M1103 1363 c9 -2 23 -2 30 0 6 3 -1 5 -18 5 -16 0 -22 -2 -12 -5z"/>
<path d="M1053 1273 c6 -34 -7 -61 -36 -73 l-22 -9 22 0 c13 -1 28 8 35 19 17
27 46 26 51 -2 2 -13 5 3 6 35 l1 57 -31 0 c-29 0 -31 -2 -26 -27z m47 7 c0
-5 -9 -10 -20 -10 -11 0 -20 5 -20 10 0 6 9 10 20 10 11 0 20 -4 20 -10z m0
-30 c0 -5 -7 -10 -15 -10 -8 0 -15 5 -15 10 0 6 7 10 15 10 8 0 15 -4 15 -10z"/>
<path d="M755 1268 c-17 -16 -17 -18 -2 -13 24 10 21 -12 -4 -25 -11 -7 -18
-14 -16 -17 3 -2 16 3 29 11 14 9 29 13 33 9 5 -5 4 -1 -3 9 -7 9 -9 18 -3 20
5 1 4 8 -3 14 -8 7 -17 5 -31 -8z"/>
<path d="M826 1281 c-4 -5 4 -7 15 -4 16 4 20 2 17 -8 -3 -8 -14 -13 -24 -12
-10 1 -13 0 -6 -3 19 -9 14 -22 -15 -38 -19 -10 -23 -15 -11 -16 9 0 20 5 24
11 5 8 10 6 16 -5 13 -24 38 -20 37 7 0 21 -1 21 -9 2 -7 -18 -9 -18 -15 -3
-9 23 1 38 28 39 18 1 19 2 4 6 -11 3 -16 11 -13 19 6 16 -39 21 -48 5z"/>
<path d="M966 1275 c4 -8 17 -15 30 -15 17 0 24 -6 24 -20 0 -14 -7 -20 -21
-20 -11 0 -18 4 -14 9 3 5 2 12 -3 15 -4 2 -9 -4 -9 -15 -2 -16 3 -20 25 -17
23 3 27 8 30 41 3 36 3 37 -32 37 -27 0 -34 -3 -30 -15z m47 -2 c-7 -2 -19 -2
-25 0 -7 3 -2 5 12 5 14 0 19 -2 13 -5z"/>
<path d="M492 1190 c0 -19 6 -53 13 -75 14 -39 14 -39 8 -5 -4 19 -10 53 -14
75 l-6 40 -1 -35z"/>
<path d="M1352 1185 c0 -16 2 -22 5 -12 2 9 2 23 0 30 -3 6 -5 -1 -5 -18z"/>
<path d="M1060 1148 c0 -9 -7 -23 -15 -31 -13 -13 -10 -15 23 -19 33 -3 38 0
37 16 -1 11 -8 22 -16 24 -8 3 -17 10 -21 16 -5 7 -8 5 -8 -6z m35 -28 c-3 -5
-13 -10 -21 -10 -8 0 -14 5 -14 10 0 6 9 10 21 10 11 0 17 -4 14 -10z"/>
<path d="M812 1124 c-12 -24 -11 -26 2 -14 9 7 16 8 16 2 0 -5 -7 -15 -15 -22
-13 -11 -13 -15 -3 -21 21 -14 27 -11 44 22 12 25 18 29 25 18 7 -11 9 -11 9
4 0 12 -8 17 -29 17 -16 0 -31 5 -33 11 -2 6 -9 -1 -16 -17z m38 -23 c-16 -31
-32 -36 -18 -7 6 14 15 26 20 26 5 0 4 -9 -2 -19z"/>
<path d="M1337 1120 c-13 -66 -73 -175 -133 -240 -63 -68 -134 -118 -211 -149
-26 -11 -41 -20 -33 -20 25 -1 147 65 197 107 l48 39 23 -28 23 -28 -41 -26
c-45 -29 -73 -41 -140 -61 l-45 -14 40 6 c113 16 305 157 305 224 0 18 4 29
10 25 6 -3 10 -2 10 4 0 18 -41 33 -71 27 l-29 -6 19 38 c25 51 43 110 38 125
-2 6 -7 -4 -10 -23z m25 -180 c-4 -42 -19 -61 -28 -37 -10 26 -23 20 -46 -19
-15 -26 -26 -34 -39 -31 -11 3 -17 1 -13 -4 11 -18 34 -8 57 26 21 31 26 33
37 20 14 -17 5 -33 -41 -65 -26 -19 -28 -19 -49 -2 -22 18 -22 19 -5 56 20 42
49 65 98 76 25 6 27 8 9 9 -13 1 -33 -4 -45 -10 -22 -10 -22 -10 -2 6 11 9 31
15 45 13 22 -3 25 -7 22 -38z"/>
<path d="M770 1129 c0 -5 -4 -8 -9 -5 -5 3 -11 -1 -14 -9 -4 -9 -1 -12 9 -8
20 7 18 -14 -3 -27 -17 -11 -17 -11 0 -6 9 3 17 0 18 -7 1 -19 18 26 18 51 1
12 -3 22 -9 22 -5 0 -10 -5 -10 -11z"/>
<path d="M982 1112 c21 -8 11 -28 -17 -35 -18 -4 -18 -5 2 -6 13 0 27 7 33 18
14 28 13 31 -12 30 -19 0 -20 -2 -6 -7z"/>
<path d="M865 1079 c-4 -6 -5 -12 -2 -15 2 -3 7 2 10 11 7 17 1 20 -8 4z"/>
<path d="M1020 1079 c-13 -9 -13 -10 2 -6 9 3 30 1 47 -6 20 -7 34 -8 40 -2 7
7 0 10 -17 11 -15 0 -34 3 -42 7 -8 4 -22 2 -30 -4z"/>
<path d="M525 1050 c4 -14 13 -35 21 -47 19 -30 19 -30 -21 -25 -31 4 -37 0
-52 -29 -10 -18 -33 -49 -50 -69 -18 -21 -33 -44 -33 -53 0 -42 208 -196 300
-222 14 -3 -16 14 -65 38 -96 48 -225 155 -225 186 0 10 12 28 26 42 14 13 35
41 45 62 15 29 25 37 47 37 16 0 37 -7 48 -16 18 -15 18 -15 -3 -5 -26 13 -60
14 -67 3 -3 -5 8 -7 23 -4 34 5 89 -40 93 -75 5 -36 -15 -31 -36 10 l-20 37
-22 -21 -22 -21 -16 29 c-19 36 -21 21 -1 -16 28 -55 151 -146 225 -165 14 -4
-8 9 -48 29 l-74 37 22 23 c12 13 19 28 15 34 -12 20 6 11 48 -23 47 -38 140
-96 153 -96 5 0 -21 18 -57 40 -84 50 -185 157 -227 240 -18 36 -30 54 -27 40z
m45 -180 c16 -38 27 -45 45 -30 18 15 20 -1 3 -18 -18 -18 -33 -15 -67 14 -25
21 -29 29 -21 45 15 27 26 24 40 -11z"/>
<path d="M983 1013 c9 -2 23 -2 30 0 6 3 -1 5 -18 5 -16 0 -22 -2 -12 -5z"/>
<path d="M1045 1000 c11 -5 27 -9 35 -9 9 0 8 4 -5 9 -11 5 -27 9 -35 9 -9 0
-8 -4 5 -9z"/>
<path d="M733 983 c9 -2 23 -2 30 0 6 3 -1 5 -18 5 -16 0 -22 -2 -12 -5z"/>
<path d="M1403 914 c9 -17 23 -36 31 -43 30 -25 18 -57 -42 -112 -76 -70 -157
-117 -257 -151 -44 -15 -73 -28 -64 -28 28 0 131 39 196 76 77 43 193 149 193
176 0 11 -12 36 -27 56 -39 54 -47 61 -30 26z"/>
<path d="M860 925 c0 -5 5 -17 10 -25 5 -8 10 -10 10 -5 0 6 -5 17 -10 25 -5
8 -10 11 -10 5z"/>
<path d="M915 790 c0 -53 4 -90 10 -90 6 0 9 32 7 81 -3 60 0 84 10 90 9 6 8
9 -7 9 -19 0 -20 -7 -20 -90z"/>
<path d="M466 851 c-4 -5 -3 -16 0 -24 7 -20 -16 -33 -27 -16 -6 9 -9 10 -9 2
0 -19 19 -26 35 -13 8 7 14 23 13 36 -3 26 -4 28 -12 15z"/>
<path d="M1362 831 c-9 -5 -4 -8 16 -7 17 1 28 4 25 9 -6 9 -25 9 -41 -2z"/>
<path d="M512 783 c-15 -48 -8 -55 8 -8 7 20 10 38 8 41 -3 2 -10 -13 -16 -33z"/>
<path d="M1336 795 c9 -14 21 -25 27 -25 6 0 0 11 -13 25 -13 14 -25 25 -27
25 -2 0 4 -11 13 -25z"/>
<path d="M480 789 c-22 -18 -22 -19 -3 -10 12 6 25 16 28 21 9 15 3 12 -25
-11z"/>
<path d="M1390 800 c-8 -5 -12 -12 -9 -15 4 -3 12 1 19 10 14 17 11 19 -10 5z"/>
<path d="M537 764 c-26 -35 -17 -38 11 -3 13 16 20 29 15 29 -4 0 -16 -12 -26
-26z"/>
<path d="M1299 771 c7 -12 19 -25 27 -28 26 -10 22 1 -9 26 -29 24 -30 24 -18
2z"/>
<path d="M576 753 c-6 -14 -5 -15 5 -6 7 7 10 15 7 18 -3 3 -9 -2 -12 -12z"/>
<path d="M1245 760 c-5 -9 -4 -11 3 -6 7 4 12 3 12 -1 0 -5 7 -18 15 -29 8
-10 14 -14 14 -9 1 6 -8 21 -18 34 -14 18 -20 21 -26 11z"/>
<path d="M586 729 c-25 -42 -16 -44 11 -3 12 19 19 34 15 34 -4 0 -16 -14 -26
-31z"/>
<path d="M608 710 c-16 -29 -16 -30 5 -42 20 -10 21 -10 8 6 -9 10 -11 20 -5
24 8 6 19 42 12 42 -2 0 -11 -14 -20 -30z"/>
<path d="M1185 730 c-4 -6 3 -25 14 -43 11 -18 21 -27 21 -21 0 5 -7 19 -15
30 -19 25 -19 34 0 34 8 0 15 -6 15 -13 0 -7 9 -18 20 -25 11 -7 20 -8 20 -3
0 5 -7 11 -15 15 -8 3 -15 12 -15 21 0 17 -35 21 -45 5z"/>
<path d="M860 720 c8 -5 22 -9 30 -9 10 0 8 3 -5 9 -27 12 -43 12 -25 0z"/>
<path d="M656 688 l-18 -33 21 25 c18 22 26 40 18 40 -1 0 -11 -15 -21 -32z"/>
<path d="M785 705 c22 -7 56 -13 75 -13 l35 1 -40 6 c-22 4 -56 10 -75 14 -34
6 -34 6 5 -8z"/>
<path d="M1150 716 c0 -11 30 -66 36 -66 2 0 -3 15 -12 33 -19 36 -24 44 -24
33z"/>
<path d="M1132 690 c0 -14 2 -19 5 -12 2 6 2 18 0 25 -3 6 -5 1 -5 -13z"/>
<path d="M737 693 c8 -3 11 -15 8 -31 -5 -26 -5 -26 5 -4 11 26 6 42 -13 41
-9 0 -9 -2 0 -6z"/>
<path d="M968 693 c12 -2 30 -2 40 0 9 3 -1 5 -23 4 -22 0 -30 -2 -17 -4z"/>
<path d="M681 668 c-1 -16 3 -28 8 -28 11 0 24 31 16 38 -3 3 -5 -1 -6 -9 0
-8 -4 -6 -9 6 -8 18 -9 17 -9 -7z"/>
<path d="M1100 660 c12 -16 24 -30 26 -30 3 0 -4 14 -16 30 -12 17 -24 30 -26
30 -3 0 4 -13 16 -30z"/>
<path d="M791 664 c0 -11 3 -14 6 -6 3 7 2 16 -1 19 -3 4 -6 -2 -5 -13z"/>
<path d="M1009 638 l6 -43 3 35 c2 19 9 38 15 42 8 5 4 8 -8 8 -18 0 -20 -5
-16 -42z"/>
<path d="M843 635 c6 -19 12 -33 14 -32 6 7 -9 67 -17 67 -5 0 -3 -16 3 -35z"/>
<path d="M929 633 c-4 -41 -3 -43 21 -42 17 1 19 3 8 6 -20 5 -25 33 -5 33 8
0 9 3 1 8 -6 4 -13 14 -16 22 -3 8 -7 -4 -9 -27z"/>
<path d="M816 633 c-6 -14 -5 -15 5 -6 7 7 10 15 7 18 -3 3 -9 -2 -12 -12z"/>
<path d="M781 624 c0 -11 3 -14 6 -6 3 7 2 16 -1 19 -3 4 -6 -2 -5 -13z"/>
<path d="M755 586 c22 -8 58 -14 80 -14 39 0 38 1 -10 8 -27 4 -63 10 -80 14
-20 4 -17 1 10 -8z"/>
<path d="M998 573 c12 -2 30 -2 40 0 9 3 -1 5 -23 4 -22 0 -30 -2 -17 -4z"/>
<path d="M903 563 c15 -2 37 -2 50 0 12 2 0 4 -28 4 -27 0 -38 -2 -22 -4z"/>
<path d="M887 399 c-9 -6 -17 -16 -17 -24 0 -7 -6 -16 -12 -18 -10 -4 -10 -6
0 -6 7 -1 12 -15 12 -36 0 -19 5 -35 10 -35 6 0 10 15 10 34 0 24 5 36 18 39
15 4 15 5 -1 6 -10 0 -17 7 -14 14 2 6 10 11 16 10 12 -3 15 13 3 21 -4 2 -15
0 -25 -5z"/>
<path d="M85 340 c0 -41 4 -60 13 -60 6 0 12 9 12 20 0 16 7 20 30 20 17 0 30
5 30 10 0 6 -13 10 -30 10 -23 0 -30 4 -30 20 0 15 7 20 29 20 17 0 33 5 36
10 4 6 -12 10 -42 10 l-48 0 0 -60z"/>
<path d="M500 340 c0 -33 4 -60 10 -60 6 0 10 27 10 60 0 33 -4 60 -10 60 -6
0 -10 -27 -10 -60z"/>
<path d="M970 340 l0 -61 47 3 c41 3 50 7 61 31 11 22 11 32 0 55 -11 23 -20
27 -61 30 l-47 3 0 -61z m85 0 c0 -31 -3 -35 -27 -38 -27 -3 -28 -1 -28 38 0
39 1 41 28 38 24 -3 27 -7 27 -38z"/>
<path d="M1390 390 c0 -5 5 -10 10 -10 6 0 10 5 10 10 0 6 -4 10 -10 10 -5 0
-10 -4 -10 -10z"/>
<path d="M548 373 c-2 -10 -1 -34 2 -53 4 -27 10 -36 28 -38 12 -2 22 1 22 7
0 6 -6 10 -12 8 -8 -1 -14 10 -16 26 -2 19 1 27 12 27 13 0 12 4 -4 20 -24 24
-27 25 -32 3z"/>
<path d="M1322 370 c-7 -12 -8 -20 -2 -20 5 0 10 -16 10 -35 0 -28 4 -35 20
-35 11 0 20 5 20 10 0 6 -4 10 -10 10 -5 0 -10 11 -10 25 0 14 5 25 10 25 6 0
10 5 10 11 0 5 -4 7 -10 4 -5 -3 -10 1 -10 9 0 22 -13 20 -28 -4z"/>
<path d="M1522 370 c-7 -11 -8 -20 -3 -20 5 0 11 -15 13 -32 2 -27 8 -34 28
-36 22 -2 23 -1 8 8 -22 14 -24 60 -3 60 12 0 11 4 -5 20 -11 11 -21 20 -23
20 -1 0 -8 -9 -15 -20z"/>
<path d="M204 356 c-10 -8 -14 -23 -12 -41 3 -27 7 -30 46 -33 l42 -3 0 43 c0
41 -2 43 -30 44 -17 1 -37 -4 -46 -10z m51 -36 c0 -29 -32 -41 -41 -16 -9 24
4 48 23 44 12 -2 18 -12 18 -28z"/>
<path d="M318 359 c-30 -17 -21 -74 12 -79 30 -5 51 0 45 10 -4 6 -12 10 -18
9 -30 -4 -38 2 -35 24 2 14 10 23 23 23 38 3 40 4 25 14 -19 12 -30 12 -52 -1z"/>
<path d="M390 336 c0 -45 20 -64 59 -58 28 4 31 7 31 43 0 21 -4 41 -10 44 -6
4 -10 -6 -10 -23 0 -31 -22 -58 -40 -47 -5 3 -10 22 -10 41 0 19 -4 34 -10 34
-5 0 -10 -15 -10 -34z"/>
<path d="M610 365 c0 -3 7 -22 15 -43 9 -20 13 -47 10 -59 -3 -13 -1 -23 5
-23 10 0 60 102 60 122 0 17 -21 -3 -32 -30 l-10 -27 -14 33 c-12 27 -34 45
-34 27z"/>
<path d="M765 354 c-34 -35 6 -91 53 -73 29 11 31 63 3 79 -27 14 -37 13 -56
-6z m53 -28 c2 -10 -1 -23 -7 -29 -15 -15 -46 16 -37 38 8 21 40 15 44 -9z"/>
<path d="M1118 359 c-18 -10 -24 -45 -10 -66 12 -18 72 -21 72 -3 0 6 -10 8
-24 4 -13 -3 -27 -1 -30 5 -5 7 5 11 28 11 29 0 36 4 36 20 0 10 -9 24 -19 30
-24 12 -31 12 -53 -1z m47 -19 c4 -6 -5 -10 -20 -10 -15 0 -24 4 -20 10 3 6
12 10 20 10 8 0 17 -4 20 -10z"/>
<path d="M1210 323 c0 -24 5 -43 10 -43 6 0 10 14 10 30 0 19 6 33 16 37 19 7
34 -13 34 -44 0 -13 5 -23 10 -23 12 0 13 50 1 69 -5 8 -25 15 -45 16 -36 1
-36 1 -36 -42z"/>
<path d="M1390 325 c0 -25 5 -45 10 -45 6 0 10 20 10 45 0 25 -4 45 -10 45 -5
0 -10 -20 -10 -45z"/>
<path d="M1440 355 c-16 -19 3 -45 32 -45 11 0 16 -4 12 -11 -3 -6 -17 -8 -30
-5 -29 8 -33 -10 -4 -19 20 -6 60 9 60 23 0 14 -24 32 -42 32 -10 0 -18 5 -18
10 0 6 12 10 26 10 14 0 23 4 19 10 -9 15 -41 12 -55 -5z"/>
<path d="M1600 323 c0 -50 17 -58 22 -10 2 24 8 32 21 31 10 -1 16 3 14 10 -2
6 -16 11 -30 11 -25 1 -27 -2 -27 -42z"/>
<path d="M1670 365 c0 -3 7 -22 15 -43 9 -20 13 -47 10 -59 -3 -13 -1 -23 5
-23 10 0 60 102 60 122 0 17 -21 -3 -32 -30 l-10 -27 -14 33 c-12 27 -34 45
-34 27z"/>
<path d="M1027 223 c-4 -3 -7 -27 -7 -51 0 -57 7 -51 12 11 5 50 5 51 -5 40z"/>
<path d="M173 175 c0 -27 2 -38 4 -22 2 15 2 37 0 50 -2 12 -4 0 -4 -28z"/>
<path d="M354 186 c1 -42 22 -64 50 -53 12 5 16 18 14 49 l-1 43 -4 -43 c-4
-38 -7 -43 -26 -40 -17 2 -23 12 -28 43 l-7 40 2 -39z"/>
<path d="M1093 175 c0 -27 2 -38 4 -22 2 15 2 37 0 50 -2 12 -4 0 -4 -28z"/>
<path d="M1158 203 c-2 -10 -1 -29 3 -43 6 -20 7 -17 8 18 1 44 -4 54 -11 25z"/>
<path d="M1442 175 c0 -27 2 -43 5 -35 2 8 7 22 10 30 3 11 11 8 30 -15 16
-20 21 -23 14 -8 -6 12 -16 25 -22 28 -7 5 -4 15 8 28 15 19 14 19 -9 -1 l-26
-24 -5 24 c-2 12 -5 1 -5 -27z"/>
<path d="M122 170 c0 -19 2 -27 5 -17 2 9 2 25 0 35 -3 9 -5 1 -5 -18z"/>
<path d="M198 193 c7 -3 16 -2 19 1 4 3 -2 6 -13 5 -11 0 -14 -3 -6 -6z"/>
<path d="M244 186 c-14 -38 22 -74 48 -48 6 6 0 8 -16 5 -15 -3 -26 -1 -26 6
0 6 11 11 25 11 14 0 25 4 25 9 0 4 -11 6 -25 3 -14 -2 -25 0 -25 6 0 6 10 13
23 15 l22 4 -23 2 c-12 0 -25 -5 -28 -13z"/>
<path d="M472 194 c10 -3 19 -19 21 -37 4 -31 5 -31 3 3 -1 27 -5 35 -21 37
-14 1 -15 0 -3 -3z"/>
<path d="M612 188 c-22 -22 -14 -35 19 -30 21 3 29 9 27 21 -4 20 -30 25 -46
9z m38 -8 c0 -5 -9 -10 -21 -10 -11 0 -17 5 -14 10 3 6 13 10 21 10 8 0 14 -4
14 -10z"/>
<path d="M680 183 c0 -10 4 -14 8 -8 4 6 11 13 16 18 5 4 2 7 -7 7 -10 0 -17
-8 -17 -17z"/>
<path d="M725 190 c-8 -14 3 -30 21 -30 8 0 14 -5 14 -11 0 -7 -9 -9 -21 -6
-16 4 -19 3 -11 -5 12 -12 42 -4 42 13 0 6 -9 13 -20 16 -11 3 -20 10 -20 15
0 6 9 8 20 5 11 -3 18 -1 14 4 -7 12 -31 11 -39 -1z"/>
<path d="M886 185 c-9 -26 -7 -32 5 -12 6 10 9 21 6 23 -2 3 -7 -2 -11 -11z"/>
<path d="M956 192 c-3 -5 5 -8 17 -8 16 1 22 -5 22 -19 0 -14 -6 -20 -23 -19
-15 0 -19 -3 -13 -9 12 -12 40 -2 47 18 11 28 -35 61 -50 37z"/>
<path d="M1184 186 c-11 -29 0 -51 26 -51 21 0 25 5 25 30 0 24 -5 31 -23 33
-13 2 -24 -3 -28 -12z m46 -21 c0 -18 -5 -25 -20 -25 -15 0 -20 7 -20 25 0 18
5 25 20 25 15 0 20 -7 20 -25z"/>
<path d="M1266 191 c-3 -5 2 -7 13 -4 16 4 20 -1 24 -29 l5 -33 -2 35 c-1 34
-26 54 -40 31z"/>
<path d="M1336 192 c-3 -5 5 -8 17 -8 13 1 23 -6 25 -17 4 -22 -27 -35 -40
-16 -8 12 -9 11 -5 -1 2 -8 14 -15 26 -14 12 0 20 -4 18 -10 -2 -6 -14 -11
-26 -10 -15 0 -19 -2 -11 -10 19 -19 45 8 48 50 3 36 1 40 -22 42 -14 1 -27
-2 -30 -6z"/>
<path d="M1545 193 c11 -3 24 -10 28 -17 6 -7 7 -6 4 4 -2 8 -14 16 -28 17
-19 1 -20 1 -4 -4z"/>
<path d="M1601 168 c2 -30 2 -31 6 -5 6 38 31 34 36 -5 l5 -33 -2 35 c-1 28
-5 36 -23 38 -20 3 -23 -1 -22 -30z"/>
<path d="M1674 186 c-9 -23 0 -51 16 -52 9 0 10 1 3 3 -20 7 -16 51 5 56 16 4
16 5 -1 6 -10 0 -20 -5 -23 -13z"/>
<path d="M1722 163 c-1 -28 -8 -45 -19 -52 -10 -6 -13 -11 -7 -11 22 0 35 29
31 67 l-4 38 -1 -42z"/>
<path d="M442 165 c0 -16 2 -22 5 -12 2 9 2 23 0 30 -3 6 -5 -1 -5 -18z"/>
<path d="M512 165 c0 -16 2 -22 5 -12 2 9 2 23 0 30 -3 6 -5 -1 -5 -18z"/>
<path d="M575 169 c-6 -17 -9 -19 -16 -8 -5 8 -9 10 -9 4 0 -5 4 -16 8 -23 6
-9 12 -5 21 14 6 15 10 29 7 31 -2 2 -7 -5 -11 -18z"/>
<path d="M1521 169 c-1 -9 6 -22 14 -29 17 -14 45 -7 44 12 0 10 -2 10 -6 1
-8 -21 -33 -15 -43 10 -6 15 -9 17 -9 6z"/>
<path d="M860 151 c0 -5 5 -13 10 -16 6 -3 10 -2 10 4 0 5 -4 13 -10 16 -5 3
-10 2 -10 -4z"/>
<path d="M635 140 c-16 -7 -17 -9 -3 -9 9 -1 20 4 23 9 7 11 7 11 -20 0z"/>
</g>
</svg>
