<?xml version="1.0" standalone="no"?>
<!DOCTYPE svg PUBLIC "-//W3C//DTD SVG 20010904//EN"
 "http://www.w3.org/TR/2001/REC-SVG-20010904/DTD/svg10.dtd">
<svg version="1.0" xmlns="http://www.w3.org/2000/svg"
 width="360.000000pt" height="360.000000pt" viewBox="0 0 360.000000 360.000000"
 preserveAspectRatio="xMidYMid meet">

<g transform="translate(0.000000,360.000000) scale(0.100000,-0.100000)"
fill="#000000" stroke="none">
<path d="M242 2849 c-46 -13 -109 -79 -122 -128 -7 -27 -10 -321 -8 -938 l3
-898 24 -38 c13 -21 42 -50 64 -65 l41 -27 1105 -2 1106 -3 293 528 293 528
-292 527 -293 527 -1090 -1 c-655 0 -1104 -5 -1124 -10z m582 -913 l211 -340
5 340 5 339 80 0 80 0 3 -473 2 -473 -92 3 -93 3 -210 339 -210 339 -3 -342
-2 -341 -80 0 -80 0 0 475 0 476 87 -3 87 -3 210 -339z m714 -133 l2 -473 -90
0 -90 0 0 468 c0 258 3 472 7 476 4 4 43 5 88 4 l80 -3 3 -472z m330 285 l2
-188 210 0 210 0 2 188 3 187 83 3 82 3 0 -476 0 -475 -85 0 -85 0 0 210 0
210 -210 0 -210 0 0 -210 0 -210 -85 0 -85 0 0 475 0 476 83 -3 82 -3 3 -187z"/>
<path d="M2610 2856 c0 -3 129 -237 287 -522 157 -284 286 -522 286 -528 0 -6
-129 -243 -286 -528 -158 -284 -287 -519 -287 -522 0 -12 158 -5 206 9 99 29
110 45 395 558 144 259 262 477 262 483 0 6 -115 219 -256 475 -278 501 -298
531 -394 563 -41 14 -213 24 -213 12z"/>
</g>
</svg>
