<?xml version="1.0" standalone="no"?>
<!DOCTYPE svg PUBLIC "-//W3C//DTD SVG 20010904//EN"
 "http://www.w3.org/TR/2001/REC-SVG-20010904/DTD/svg10.dtd">
<svg version="1.0" xmlns="http://www.w3.org/2000/svg"
 width="539.000000pt" height="311.000000pt" viewBox="0 0 539.000000 311.000000"
 preserveAspectRatio="xMidYMid meet">

<g transform="translate(0.000000,311.000000) scale(0.100000,-0.100000)"
fill="#000000" stroke="none">
<path d="M4770 2280 c-83 -10 -117 -24 -157 -62 -39 -38 -40 -39 -153 -461
-104 -390 -110 -442 -64 -535 33 -66 97 -117 167 -132 35 -8 156 -10 362 -8
291 3 312 4 345 23 39 23 79 90 104 173 l15 52 -327 0 c-240 0 -333 4 -351 13
-36 18 -63 60 -64 98 0 19 48 212 106 430 59 218 107 401 107 408 0 6 -6 10
-12 10 -7 -1 -42 -5 -78 -9z"/>
<path d="M4016 2269 c-82 -19 -106 -45 -155 -162 -34 -80 -11 -77 -638 -77
-320 0 -575 -4 -613 -10 -187 -29 -350 -184 -389 -368 -50 -241 86 -477 322
-555 56 -19 92 -21 382 -25 385 -5 519 2 545 28 11 11 28 50 40 89 11 39 32
84 46 100 l25 30 -473 3 -473 3 -53 29 c-170 95 -156 328 25 409 21 9 190 13
648 17 l620 5 52 24 c61 27 111 79 148 150 20 41 95 286 95 313 0 11 -106 8
-154 -3z"/>
<path d="M465 2018 c-243 -46 -418 -298 -377 -540 15 -87 49 -166 98 -225 l36
-44 -108 -187 c-100 -172 -109 -191 -109 -239 0 -43 5 -57 26 -78 47 -48 136
-50 184 -5 14 13 71 103 127 202 l102 178 76 -6 c306 -25 559 245 513 546 -42
270 -298 450 -568 398z m214 -281 c22 -15 53 -46 68 -69 24 -36 28 -51 28
-118 0 -67 -4 -82 -28 -118 -15 -23 -46 -54 -69 -69 -36 -24 -51 -28 -118 -28
-67 0 -82 4 -118 28 -63 41 -95 97 -100 171 -6 97 36 173 121 216 61 31 158
25 216 -13z"/>
<path d="M1553 2015 c-83 -23 -152 -63 -219 -126 -75 -73 -106 -133 -148 -288
l-33 -121 132 0 133 0 18 68 c9 37 25 83 35 102 88 177 356 153 409 -36 29
-102 -16 -208 -109 -256 l-53 -28 -328 0 -328 0 -31 -54 c-43 -76 -86 -123
-156 -168 l-60 -39 475 3 c458 3 477 4 532 25 145 55 242 152 298 298 31 82
32 223 1 309 -57 160 -182 273 -343 311 -78 18 -157 18 -225 0z"/>
<path d="M4322 2019 c-68 -11 -105 -31 -136 -71 -26 -35 -38 -74 -111 -343
-48 -178 -64 -216 -105 -247 -29 -21 -119 -38 -208 -38 -99 0 -148 -41 -173
-145 -6 -27 -18 -60 -26 -73 l-14 -23 248 3 c247 3 248 3 299 30 81 42 131
109 167 223 16 47 187 682 187 691 0 6 -69 3 -128 -7z"/>
<path d="M1285 960 c-38 -15 -63 -55 -84 -135 -12 -44 -24 -88 -27 -98 -6 -18
1 -19 99 -15 141 4 153 12 189 139 15 52 28 100 28 107 0 14 -171 16 -205 2z"/>
<path d="M4443 959 c-46 -13 -78 -58 -97 -136 -9 -37 -19 -76 -22 -85 -5 -17
5 -18 120 -18 l125 0 11 43 c7 23 22 79 35 125 l23 82 -82 -1 c-44 0 -95 -5
-113 -10z"/>
<path d="M4699 928 c-6 -24 -21 -80 -34 -125 l-22 -83 126 0 126 0 29 113 c16
61 31 118 34 125 3 9 -25 12 -122 12 l-125 0 -12 -42z"/>
<path d="M5007 868 c-15 -57 -30 -113 -33 -125 -6 -23 -5 -23 94 -23 93 0 103
2 131 26 30 25 60 98 76 188 l7 36 -124 0 -124 0 -27 -102z"/>
<path d="M3145 924 l-40 -13 40 5 c40 6 52 11 44 18 -2 2 -22 -3 -44 -10z"/>
<path d="M2350 835 c0 -43 4 -75 10 -75 6 0 10 32 10 75 0 43 -4 75 -10 75 -6
0 -10 -32 -10 -75z"/>
<path d="M2720 835 c0 -60 3 -75 15 -75 12 0 15 15 15 75 0 60 -3 75 -15 75
-12 0 -15 -15 -15 -75z"/>
<path d="M3140 896 c-38 -14 -40 -27 -14 -77 18 -35 8 -39 -94 -39 -83 0 -93
4 -111 38 -18 34 -33 27 -26 -11 6 -29 2 -37 -24 -59 -17 -15 -36 -28 -43 -31
-9 -3 -10 -8 -2 -16 8 -8 21 -4 52 19 23 17 42 33 42 38 0 4 52 5 115 4 129
-4 140 2 116 62 -19 48 -18 50 22 60 20 5 37 13 37 18 0 11 -29 9 -70 -6z"/>
<path d="M2260 880 c0 -5 7 -10 15 -10 8 0 15 5 15 10 0 6 -7 10 -15 10 -8 0
-15 -4 -15 -10z"/>
<path d="M3630 880 c0 -5 5 -10 10 -10 6 0 10 5 10 10 0 6 -4 10 -10 10 -5 0
-10 -4 -10 -10z"/>
<path d="M3670 880 c0 -5 5 -10 10 -10 6 0 10 5 10 10 0 6 -4 10 -10 10 -5 0
-10 -4 -10 -10z"/>
<path d="M3465 850 c-7 -12 8 -18 55 -22 l34 -3 -29 -20 c-23 -15 -51 -21
-120 -23 l-90 -3 -17 31 c-13 23 -24 31 -39 28 -50 -7 -49 -69 0 -76 29 -5 22
-22 -17 -47 -28 -18 -43 -45 -24 -45 17 0 81 51 87 70 6 18 15 20 101 20 72 0
101 4 121 17 23 15 27 15 37 1 9 -13 46 -15 243 -16 128 0 235 3 238 8 7 11
-81 90 -100 90 -8 0 -15 -7 -15 -15 0 -8 8 -15 18 -15 18 0 52 -29 52 -43 0
-4 -18 -7 -39 -7 -41 0 -71 20 -71 46 0 8 -4 14 -10 14 -5 0 -10 -11 -10 -23
0 -13 -3 -26 -6 -30 -12 -12 -34 6 -34 29 0 15 -6 24 -15 24 -9 0 -15 -9 -15
-23 0 -13 -3 -27 -7 -30 -10 -11 -33 13 -33 34 0 11 -7 19 -15 19 -9 0 -15 -9
-15 -24 0 -14 -4 -27 -9 -30 -18 -11 -41 6 -41 30 0 15 -6 24 -15 24 -9 0 -15
-9 -15 -25 0 -31 -23 -42 -56 -27 -31 15 -31 30 1 38 14 3 25 12 25 20 0 11
-18 14 -74 14 -41 0 -78 -5 -81 -10z m-185 -50 c0 -14 -15 -19 -29 -10 -17 10
-5 31 14 23 8 -3 15 -9 15 -13z"/>
<path d="M2282 813 l3 -28 -122 -3 c-119 -3 -155 -13 -92 -27 37 -8 33 -27 -9
-39 -48 -13 -82 5 -82 44 0 16 -5 30 -11 30 -6 0 -9 -17 -7 -42 2 -35 8 -45
30 -56 41 -19 105 0 126 39 17 28 18 29 103 29 94 0 106 8 88 58 -12 31 -30
27 -27 -5z"/>
<path d="M2437 834 c-3 -4 -2 -15 4 -25 13 -25 -2 -53 -41 -76 -26 -15 -42
-43 -24 -43 9 0 68 42 81 58 9 10 39 14 120 15 107 2 108 2 111 27 3 30 -12
55 -27 46 -7 -5 -8 -13 -1 -25 5 -10 6 -21 3 -25 -3 -3 -42 -6 -85 -6 -65 0
-81 3 -98 20 -11 11 -20 25 -20 30 0 11 -13 13 -23 4z"/>
<path d="M2630 710 c0 -5 5 -10 10 -10 6 0 10 5 10 10 0 6 -4 10 -10 10 -5 0
-10 -4 -10 -10z"/>
<path d="M2670 710 c0 -5 5 -10 10 -10 6 0 10 5 10 10 0 6 -4 10 -10 10 -5 0
-10 -4 -10 -10z"/>
<path d="M3520 710 c0 -5 5 -10 10 -10 6 0 10 5 10 10 0 6 -4 10 -10 10 -5 0
-10 -4 -10 -10z"/>
<path d="M3960 710 c0 -5 5 -10 10 -10 6 0 10 5 10 10 0 6 -4 10 -10 10 -5 0
-10 -4 -10 -10z"/>
</g>
</svg>
