<?xml version="1.0" standalone="no"?>
<!DOCTYPE svg PUBLIC "-//W3C//DTD SVG 20010904//EN"
 "http://www.w3.org/TR/2001/REC-SVG-20010904/DTD/svg10.dtd">
<svg version="1.0" xmlns="http://www.w3.org/2000/svg"
 width="275.000000pt" height="273.000000pt" viewBox="0 0 275.000000 273.000000"
 preserveAspectRatio="xMidYMid meet">

<g transform="translate(0.000000,273.000000) scale(0.100000,-0.100000)"
fill="#000000" stroke="none">
<path d="M1186 2670 c-95 -15 -243 -58 -328 -95 -454 -196 -749 -604 -798
-1103 -41 -404 139 -844 450 -1106 187 -157 365 -245 600 -297 87 -20 133 -24
270 -23 143 0 180 4 276 27 274 66 481 183 667 376 177 186 283 385 344 646
24 103 28 356 9 476 -87 526 -460 932 -985 1071 -103 27 -135 31 -281 34 -91
1 -191 -1 -224 -6z m469 -38 c44 -10 105 -27 135 -36 88 -29 269 -122 345
-178 97 -73 231 -210 288 -294 48 -74 62 -104 27 -63 -27 33 -25 18 9 -54 121
-260 146 -371 146 -637 -1 -166 -3 -196 -27 -290 -38 -151 -139 -377 -152
-339 -3 8 -12 73 -21 144 -9 72 -27 209 -41 305 -13 96 -51 386 -84 645 -34
259 -64 481 -67 495 l-5 25 -9 -25 c-149 -462 -323 -987 -329 -993 -8 -10 -21
55 -46 237 l-17 123 -51 -5 c-112 -9 -102 2 -158 -182 -49 -162 -56 -188 -57
-202 -2 -15 -21 -8 -21 8 0 9 -14 63 -32 120 -21 71 -35 101 -42 95 -6 -5 -24
-11 -41 -13 -26 -3 -31 -8 -35 -38 -4 -27 -10 -36 -27 -38 -13 -2 -23 2 -23 8
0 8 -108 206 -124 227 -1 1 -28 -22 -59 -52 l-58 -54 -319 -1 -318 0 -38 47
c-21 27 -42 52 -46 58 -5 5 -44 -26 -96 -77 -79 -78 -91 -87 -129 -89 -23 -2
-44 -1 -47 1 -9 10 26 178 56 264 63 188 161 348 300 492 193 199 435 328 713
379 113 20 391 13 500 -13z m489 -1317 c10 -96 52 -465 77 -665 l20 -165 -53
-48 c-64 -58 -190 -143 -276 -186 -129 -65 -343 -121 -461 -121 l-56 0 -210
421 c-116 232 -211 424 -212 428 -1 3 36 58 83 121 47 63 111 150 142 192 l57
77 72 1 c39 0 74 -3 77 -8 2 -4 17 -98 32 -209 l28 -201 54 -4 c40 -2 56 1 62
12 4 8 27 97 51 198 24 100 46 182 49 182 3 0 18 -93 33 -207 15 -115 30 -225
33 -245 6 -36 8 -38 43 -38 21 0 58 -3 82 -6 43 -6 44 -5 57 28 7 18 54 147
104 286 53 146 94 248 99 240 3 -7 10 -44 13 -83z m-1244 -60 c-67 -74 -125
-135 -129 -134 -3 0 -33 36 -66 80 -33 45 -75 101 -93 125 l-34 44 205 0 c127
0 208 4 212 10 3 6 11 10 16 10 6 0 -44 -61 -111 -135z m-512 8 c33 -60 86
-158 118 -219 l59 -111 -25 -45 c-14 -24 -59 -105 -100 -181 -41 -75 -79 -137
-83 -137 -4 0 -3 9 3 20 9 16 4 28 -27 68 -21 26 -51 69 -67 95 -30 47 -50 62
-40 30 12 -37 -43 65 -63 117 -50 129 -76 241 -88 388 l-7 82 130 0 130 0 60
-107z m486 -621 c44 -81 98 -181 121 -222 23 -41 66 -119 95 -174 l53 -99 -38
7 c-179 34 -418 156 -583 298 l-33 28 147 155 c81 85 150 155 153 155 3 0 42
-66 85 -148z"/>
</g>
</svg>
