<?xml version="1.0" standalone="no"?>
<!DOCTYPE svg PUBLIC "-//W3C//DTD SVG 20010904//EN"
 "http://www.w3.org/TR/2001/REC-SVG-20010904/DTD/svg10.dtd">
<svg version="1.0" xmlns="http://www.w3.org/2000/svg"
 width="230.000000pt" height="225.000000pt" viewBox="0 0 230.000000 225.000000"
 preserveAspectRatio="xMidYMid meet">

<g transform="translate(0.000000,225.000000) scale(0.100000,-0.100000)"
fill="#000000" stroke="none">
<path d="M842 2121 c-126 -98 -208 -176 -252 -241 -73 -107 -70 -83 -70 -576
l0 -444 69 0 c128 0 152 -20 263 -217 l80 -143 97 1 c53 1 143 4 200 8 l104 6
72 128 c109 193 138 217 260 217 l76 0 -3 448 -3 447 -34 70 c-41 83 -138 184
-282 293 l-95 72 -196 0 -196 0 -90 -69z m184 8 c24 -6 44 -15 44 -19 0 -4
-35 -34 -77 -66 -119 -89 -159 -130 -183 -186 -22 -51 -22 -60 -24 -517 l-1
-466 69 -3 c51 -2 77 -9 98 -24 38 -27 138 -148 138 -167 0 -8 -18 -38 -40
-68 -32 -41 -47 -53 -68 -53 -25 0 -35 12 -96 120 -37 67 -81 136 -97 154 -40
46 -107 76 -169 76 l-50 0 0 418 0 418 27 55 c32 63 162 198 273 282 81 60 88
63 156 46z m340 -32 c173 -128 289 -256 313 -344 7 -24 11 -192 11 -440 l0
-403 -52 0 c-111 -1 -174 -56 -273 -239 l-60 -111 -112 0 c-62 0 -113 3 -113
7 0 11 134 185 189 246 l53 57 69 0 69 0 0 458 c0 298 -4 471 -11 496 -18 66
-57 112 -167 198 -58 46 -114 91 -126 100 -20 17 -18 17 65 18 l87 0 58 -43z
m-151 -87 c130 -98 182 -157 190 -211 3 -24 5 -231 3 -459 l-3 -415 -53 -5
c-50 -5 -58 -10 -111 -65 -31 -33 -69 -76 -84 -95 l-27 -35 -27 35 c-14 19
-54 63 -89 97 -60 60 -63 62 -120 65 l-59 3 1 440 c1 514 -4 486 112 580 131
106 167 134 171 134 3 1 46 -30 96 -69z"/>
<path d="M32 423 c61 -72 90 -186 51 -196 -10 -3 11 -5 47 -5 36 0 58 2 50 5
-44 17 -39 65 14 146 l44 67 -31 0 c-24 0 -28 -3 -17 -10 13 -8 12 -16 -10
-55 -13 -25 -27 -45 -30 -45 -3 0 -17 20 -30 45 -22 39 -23 47 -10 55 11 7 -1
10 -39 10 -51 0 -53 -1 -39 -17z"/>
<path d="M648 433 c6 -2 12 -20 12 -39 0 -32 -2 -33 -29 -28 -22 5 -32 1 -50
-21 -24 -31 -26 -53 -9 -90 13 -29 52 -43 72 -26 10 9 15 9 18 1 2 -7 14 -9
31 -4 20 5 25 10 18 17 -6 6 -11 51 -11 104 l0 93 -32 -1 c-18 0 -27 -3 -20
-6z m1 -87 c7 -8 11 -34 9 -58 -2 -35 -7 -43 -23 -43 -16 0 -21 8 -23 44 -5
66 10 89 37 57z"/>
<path d="M833 429 c14 -8 17 -24 17 -89 0 -96 16 -121 78 -119 21 1 29 3 17 6
-40 10 -45 23 -45 113 0 76 3 89 18 93 9 3 -10 5 -43 6 -45 0 -56 -2 -42 -10z"/>
<path d="M984 427 c15 -11 17 -25 14 -94 -2 -45 0 -79 5 -76 4 2 7 40 7 83 0
65 3 81 18 89 14 8 9 10 -22 11 -35 0 -38 -2 -22 -13z"/>
<path d="M1256 424 c-4 -10 -2 -22 3 -27 14 -14 43 0 39 20 -4 24 -34 28 -42
7z"/>
<path d="M1946 424 c-4 -10 -2 -22 3 -27 14 -14 43 0 39 20 -4 24 -34 28 -42
7z"/>
<path d="M2072 423 c-1 -6 -14 -25 -28 -42 -14 -17 -21 -31 -15 -31 7 0 11
-23 11 -60 0 -66 13 -81 53 -62 18 9 19 11 5 11 -15 1 -18 10 -18 55 0 49 2
54 25 58 14 3 29 0 33 -6 21 -27 61 -128 56 -144 -2 -9 4 2 15 26 l20 42 -20
35 c-12 19 -18 42 -15 50 4 12 -5 15 -54 15 l-59 0 -4 33 c-2 17 -5 27 -5 20z"/>
<path d="M285 356 c-21 -15 -14 -46 10 -46 11 0 15 7 13 23 -2 14 2 22 12 22
18 0 27 -92 11 -108 -18 -18 -26 2 -14 33 l11 30 -28 -15 c-51 -27 -40 -92 13
-68 15 7 27 7 38 0 9 -6 25 -7 35 -2 13 5 15 9 7 12 -8 3 -13 24 -13 57 0 29
-5 57 -12 64 -16 16 -60 15 -83 -2z"/>
<path d="M421 343 c0 -27 1 -27 9 -5 6 15 18 22 35 22 l26 0 -27 -47 c-15 -27
-33 -58 -41 -70 -13 -23 -13 -23 52 -23 59 0 65 2 65 21 0 19 -1 19 -16 5 -8
-9 -24 -16 -36 -16 -18 0 -17 5 16 64 20 35 36 67 36 70 0 3 -27 6 -60 6 -59
0 -60 0 -59 -27z"/>
<path d="M1068 358 c16 -16 16 -110 0 -126 -9 -9 6 -12 71 -12 67 0 81 3 73
13 -6 7 -12 37 -14 66 -3 62 -24 85 -58 63 -12 -7 -20 -8 -20 -2 0 5 -14 10
-32 10 -25 0 -29 -3 -20 -12z m92 -68 c0 -53 -2 -60 -20 -60 -17 0 -20 7 -20
53 0 56 4 67 27 67 9 0 13 -17 13 -60z"/>
<path d="M1248 358 c16 -16 16 -110 0 -126 -9 -9 -2 -12 32 -11 25 0 39 3 33
6 -9 3 -13 28 -13 74 l0 69 -32 0 c-25 0 -29 -3 -20 -12z"/>
<path d="M1332 353 c8 -10 25 -44 39 -75 13 -32 27 -58 30 -58 3 0 11 11 17
25 10 20 8 31 -9 60 -12 19 -18 42 -15 50 4 12 -3 15 -36 15 -38 0 -40 -1 -26
-17z"/>
<path d="M1439 361 c12 -8 13 -14 3 -37 -20 -41 -9 -37 15 7 l21 39 -26 0
c-20 0 -23 -3 -13 -9z"/>
<path d="M1529 351 c-45 -37 -19 -131 36 -131 13 0 33 9 46 20 23 20 23 21 1
8 -27 -16 -55 -2 -60 31 -3 18 1 21 37 21 45 0 51 11 25 48 -19 27 -54 28 -85
3z m59 -19 c3 -17 -2 -22 -17 -22 -14 0 -21 6 -21 18 0 38 33 41 38 4z"/>
<path d="M1665 295 l0 -75 40 0 c26 0 35 3 27 9 -9 5 -13 26 -12 57 3 82 2 84
-27 84 l-28 0 0 -75z"/>
<path d="M1746 362 c-2 -4 2 -16 10 -27 10 -14 17 -16 25 -8 7 7 9 19 6 27 -7
17 -32 22 -41 8z"/>
<path d="M1816 349 c-18 -27 -13 -42 30 -74 33 -26 37 -45 9 -45 -8 0 -23 10
-35 22 -11 12 -20 18 -20 12 1 -36 66 -56 93 -29 30 29 23 46 -43 95 -23 17
-24 19 -6 26 14 5 24 1 38 -15 l18 -23 0 23 c0 20 -6 24 -34 26 -26 2 -39 -3
-50 -18z"/>
<path d="M1938 358 c7 -7 12 -35 12 -63 0 -28 -5 -56 -12 -63 -9 -9 -2 -12 33
-11 24 0 38 3 32 6 -9 3 -13 28 -13 74 l0 69 -32 0 c-25 0 -29 -3 -20 -12z"/>
<path d="M2239 361 c12 -8 13 -14 3 -37 -20 -41 -9 -37 15 7 l21 39 -26 0
c-20 0 -23 -3 -13 -9z"/>
<path d="M2130 180 c0 -28 28 -37 48 -16 16 16 16 17 0 10 -13 -4 -18 -1 -18
10 0 9 -7 16 -15 16 -8 0 -15 -9 -15 -20z"/>
</g>
</svg>
